<?xml version="1.0" encoding="UTF-8" standalone="no"?>
<!-- Created with Inkscape (http://www.inkscape.org/) -->

<svg
   xmlns:dc="http://purl.org/dc/elements/1.1/"
   xmlns:cc="http://creativecommons.org/ns#"
   xmlns:rdf="http://www.w3.org/1999/02/22-rdf-syntax-ns#"
   xmlns:svg="http://www.w3.org/2000/svg"
   xmlns="http://www.w3.org/2000/svg"
   xmlns:xlink="http://www.w3.org/1999/xlink"
   xmlns:sodipodi="http://sodipodi.sourceforge.net/DTD/sodipodi-0.dtd"
   xmlns:inkscape="http://www.inkscape.org/namespaces/inkscape"
   width="256"
   height="256"
   id="svg2"
   sodipodi:version="0.32"
   inkscape:version="0.92.5 (2060ec1f9f, 2020-04-08)"
   version="1.0"
   sodipodi:docname="BreakInBunny-icon.svg"
   inkscape:export-filename="/home/mouse/Pictures/BreakIn Bunny-256.png"
   inkscape:export-xdpi="96"
   inkscape:export-ydpi="96"
   inkscape:output_extension="org.inkscape.output.svg.inkscape">
  <title
     id="title1140">BreakIn Bunny</title>
  <defs
     id="defs4">
    <inkscape:perspective
       sodipodi:type="inkscape:persp3d"
       inkscape:vp_x="0 : 382.5 : 1"
       inkscape:vp_y="0 : 1000 : 0"
       inkscape:vp_z="990 : 382.5 : 1"
       inkscape:persp3d-origin="495 : 255 : 1"
       id="perspective247" />
    <linearGradient
       id="linearGradient2679">
      <stop
         style="stop-color:#76d476;stop-opacity:1;"
         offset="0"
         id="stop2681" />
      <stop
         id="stop2687"
         offset="0.99000001"
         style="stop-color:#62bb62;stop-opacity:1;" />
      <stop
         style="stop-color:#4ea24e;stop-opacity:1;"
         offset="1"
         id="stop2683" />
    </linearGradient>
    <linearGradient
       id="linearGradient2394">
      <stop
         style="stop-color:#808080;stop-opacity:0.25098041;"
         offset="0"
         id="stop2396" />
      <stop
         style="stop-color:#808080;stop-opacity:0;"
         offset="1"
         id="stop2398" />
    </linearGradient>
    <linearGradient
       inkscape:collect="always"
       id="linearGradient2530">
      <stop
         style="stop-color:#ffffff;stop-opacity:1;"
         offset="0"
         id="stop2532" />
      <stop
         style="stop-color:#ffffff;stop-opacity:0;"
         offset="1"
         id="stop2534" />
    </linearGradient>
    <linearGradient
       id="linearGradient2914">
      <stop
         id="stop2916"
         offset="0"
         style="stop-color:#ffffff;stop-opacity:1;" />
      <stop
         id="stop2918"
         offset="1"
         style="stop-color:#ffffff;stop-opacity:0;" />
    </linearGradient>
    <linearGradient
       id="linearGradient2904">
      <stop
         style="stop-color:#808080;stop-opacity:1;"
         offset="0"
         id="stop2906" />
      <stop
         id="stop2922"
         offset="0.88235295"
         style="stop-color:#767676;stop-opacity:1;" />
      <stop
         style="stop-color:#6c6c6c;stop-opacity:1;"
         offset="1"
         id="stop2908" />
    </linearGradient>
    <linearGradient
       id="linearGradient3532">
      <stop
         style="stop-color:#ffffff;stop-opacity:1;"
         offset="0"
         id="stop3534" />
      <stop
         style="stop-color:#808080;stop-opacity:0.50196081;"
         offset="1"
         id="stop3536" />
    </linearGradient>
    <linearGradient
       id="linearGradient3520">
      <stop
         style="stop-color:#ffffff;stop-opacity:1;"
         offset="0"
         id="stop3522" />
      <stop
         id="stop3528"
         offset="0.85000002"
         style="stop-color:#ffffff;stop-opacity:0.49803922;" />
      <stop
         style="stop-color:#ffffff;stop-opacity:0;"
         offset="1"
         id="stop3524" />
    </linearGradient>
    <linearGradient
       id="linearGradient2873">
      <stop
         style="stop-color:#2a2a2a;stop-opacity:0.16470589;"
         offset="0"
         id="stop2875" />
      <stop
         style="stop-color:#242728;stop-opacity:0;"
         offset="1"
         id="stop2877" />
    </linearGradient>
    <linearGradient
       id="linearGradient2801">
      <stop
         style="stop-color:#000000;stop-opacity:0.50196081;"
         offset="0"
         id="stop2803" />
      <stop
         style="stop-color:#000000;stop-opacity:0;"
         offset="1"
         id="stop2805" />
    </linearGradient>
    <linearGradient
       id="linearGradient2793">
      <stop
         style="stop-color:#000000;stop-opacity:0.12371134;"
         offset="0"
         id="stop2795" />
      <stop
         style="stop-color:#000000;stop-opacity:0;"
         offset="1"
         id="stop2797" />
    </linearGradient>
    <linearGradient
       inkscape:collect="always"
       xlink:href="#linearGradient2793"
       id="linearGradient2799"
       x1="3.1160531"
       y1="480.56827"
       x2="35.867245"
       y2="366.05481"
       gradientUnits="userSpaceOnUse"
       gradientTransform="matrix(0.908742,0.346937,-0.407395,0.616656,650.7017,116.1105)" />
    <linearGradient
       inkscape:collect="always"
       xlink:href="#linearGradient2801"
       id="linearGradient2807"
       x1="50.085918"
       y1="507.44836"
       x2="50.085918"
       y2="348.20541"
       gradientUnits="userSpaceOnUse"
       gradientTransform="rotate(19.003753,1131.2382,3374.6157)" />
    <radialGradient
       inkscape:collect="always"
       xlink:href="#linearGradient2873"
       id="radialGradient2879"
       cx="725.65717"
       cy="687.04285"
       fx="725.65717"
       fy="687.04285"
       r="163.2"
       gradientTransform="matrix(1,0,0,0.165179,0,573.5581)"
       gradientUnits="userSpaceOnUse" />
    <radialGradient
       inkscape:collect="always"
       xlink:href="#linearGradient3520"
       id="radialGradient3526"
       cx="297.25714"
       cy="416.01428"
       fx="297.25714"
       fy="416.01428"
       r="42.257141"
       gradientTransform="matrix(1,0,0,0.87931,0,50.20861)"
       gradientUnits="userSpaceOnUse" />
    <radialGradient
       inkscape:collect="always"
       xlink:href="#linearGradient3532"
       id="radialGradient3538"
       cx="838.5943"
       cy="621.80725"
       fx="838.5943"
       fy="621.80725"
       r="18.450365"
       gradientTransform="matrix(5.910074,0.51989,-0.335715,3.81638,-3908.81,-2067.222)"
       gradientUnits="userSpaceOnUse" />
    <radialGradient
       inkscape:collect="always"
       xlink:href="#linearGradient3520"
       id="radialGradient3551"
       gradientUnits="userSpaceOnUse"
       gradientTransform="matrix(1,0,0,0.87931,0,50.20861)"
       cx="297.25714"
       cy="416.01428"
       fx="297.25714"
       fy="416.01428"
       r="42.257141" />
    <radialGradient
       inkscape:collect="always"
       xlink:href="#linearGradient2904"
       id="radialGradient2910"
       cx="139.61977"
       cy="452.30988"
       fx="139.61977"
       fy="452.30988"
       r="34.904942"
       gradientUnits="userSpaceOnUse"
       gradientTransform="matrix(0.673231,-0.739432,0.443114,0.403442,-154.8017,373.0681)" />
    <radialGradient
       inkscape:collect="always"
       xlink:href="#linearGradient2914"
       id="radialGradient2920"
       gradientUnits="userSpaceOnUse"
       gradientTransform="matrix(0.906616,-0.583331,0.318841,0.495543,-131.1765,309.6155)"
       cx="139.61977"
       cy="452.30988"
       fx="139.61977"
       fy="452.30988"
       r="34.904942" />
    <radialGradient
       inkscape:collect="always"
       xlink:href="#linearGradient2530"
       id="radialGradient2536"
       cx="452.30988"
       cy="495.94107"
       fx="452.30988"
       fy="495.94107"
       r="65.663017"
       gradientTransform="matrix(2.214931,0,0,1.811374,-549.5254,-402.3937)"
       gradientUnits="userSpaceOnUse" />
    <radialGradient
       inkscape:collect="always"
       xlink:href="#linearGradient2530"
       id="radialGradient2587"
       gradientUnits="userSpaceOnUse"
       gradientTransform="matrix(2.214931,0,0,1.811374,-549.5254,-402.3937)"
       cx="452.30988"
       cy="495.94107"
       fx="452.30988"
       fy="495.94107"
       r="65.663017" />
    <linearGradient
       inkscape:collect="always"
       xlink:href="#linearGradient2793"
       id="linearGradient2364"
       gradientUnits="userSpaceOnUse"
       gradientTransform="matrix(0.908742,0.346937,-0.407395,0.616656,650.7017,236.1105)"
       x1="3.1160531"
       y1="480.56827"
       x2="35.867245"
       y2="366.05481" />
    <linearGradient
       inkscape:collect="always"
       xlink:href="#linearGradient2793"
       id="linearGradient2520"
       gradientUnits="userSpaceOnUse"
       gradientTransform="matrix(0.908742,0.346937,-0.407395,0.616656,650.7017,236.1105)"
       x1="3.1160531"
       y1="480.56827"
       x2="35.867245"
       y2="366.05481" />
    <radialGradient
       inkscape:collect="always"
       xlink:href="#linearGradient3532"
       id="radialGradient2524"
       gradientUnits="userSpaceOnUse"
       gradientTransform="matrix(5.910074,0.51989,-0.335715,3.81638,-3908.81,-2067.222)"
       cx="838.5943"
       cy="621.80725"
       fx="838.5943"
       fy="621.80725"
       r="18.450365" />
    <radialGradient
       inkscape:collect="always"
       xlink:href="#linearGradient2530"
       id="radialGradient2526"
       gradientUnits="userSpaceOnUse"
       gradientTransform="matrix(2.214931,0,0,1.811374,-549.5254,-402.3937)"
       cx="452.30988"
       cy="495.94107"
       fx="452.30988"
       fy="495.94107"
       r="65.663017" />
    <radialGradient
       inkscape:collect="always"
       xlink:href="#linearGradient3532"
       id="radialGradient2433"
       gradientUnits="userSpaceOnUse"
       gradientTransform="matrix(5.910074,0.51989,-0.335715,3.81638,-3944.391,-2186.524)"
       cx="838.5943"
       cy="621.80725"
       fx="838.5943"
       fy="621.80725"
       r="18.450365" />
    <linearGradient
       inkscape:collect="always"
       xlink:href="#linearGradient2793"
       id="linearGradient2454"
       gradientUnits="userSpaceOnUse"
       gradientTransform="matrix(0.43196132,0.16491299,-0.19365109,0.2931212,148.83567,493.71658)"
       x1="3.1160531"
       y1="480.56827"
       x2="35.867245"
       y2="366.05481" />
    <radialGradient
       inkscape:collect="always"
       xlink:href="#linearGradient2904"
       id="radialGradient2673"
       gradientUnits="userSpaceOnUse"
       gradientTransform="matrix(0.673231,-0.739432,0.443114,0.403442,-154.8017,373.0681)"
       cx="139.61977"
       cy="452.30988"
       fx="139.61977"
       fy="452.30988"
       r="34.904942" />
  </defs>
  <sodipodi:namedview
     id="base"
     pagecolor="#ffffff"
     bordercolor="#666666"
     borderopacity="1.0"
     inkscape:pageopacity="0.0"
     inkscape:pageshadow="2"
     inkscape:zoom="3.5234375"
     inkscape:cx="128"
     inkscape:cy="128"
     inkscape:document-units="px"
     inkscape:current-layer="layer1"
     showguides="true"
     inkscape:guide-bbox="true"
     inkscape:window-width="1468"
     inkscape:window-height="1126"
     inkscape:window-x="0"
     inkscape:window-y="0"
     showgrid="false"
     inkscape:window-maximized="0" />
  <metadata
     id="metadata7">
    <rdf:RDF>
      <cc:Work
         rdf:about="">
        <dc:format>image/svg+xml</dc:format>
        <dc:type
           rdf:resource="http://purl.org/dc/dcmitype/StillImage" />
        <dc:title>BreakIn Bunny</dc:title>
        <dc:creator>
          <cc:Agent>
            <dc:title>Mason Mouse</dc:title>
          </cc:Agent>
        </dc:creator>
        <dc:description>Icon for the BreakIn app</dc:description>
        <cc:license
           rdf:resource="http://creativecommons.org/licenses/by-sa/4.0/" />
      </cc:Work>
      <cc:License
         rdf:about="http://creativecommons.org/licenses/by-sa/4.0/">
        <cc:permits
           rdf:resource="http://creativecommons.org/ns#Reproduction" />
        <cc:permits
           rdf:resource="http://creativecommons.org/ns#Distribution" />
        <cc:requires
           rdf:resource="http://creativecommons.org/ns#Notice" />
        <cc:requires
           rdf:resource="http://creativecommons.org/ns#Attribution" />
        <cc:permits
           rdf:resource="http://creativecommons.org/ns#DerivativeWorks" />
        <cc:requires
           rdf:resource="http://creativecommons.org/ns#ShareAlike" />
      </cc:License>
    </rdf:RDF>
  </metadata>
  <g
     inkscape:groupmode="layer"
     id="layer2"
     inkscape:label="Background"
     style="display:none"
     transform="translate(0,-509)">
    <rect
       style="color:#000000;display:inline;overflow:visible;visibility:visible;opacity:1;fill:#d3e9df;fill-opacity:1;fill-rule:nonzero;stroke:none;stroke-width:5;stroke-linecap:round;stroke-linejoin:miter;stroke-miterlimit:4;stroke-dasharray:none;stroke-dashoffset:0;stroke-opacity:1;marker:none;marker-start:none;marker-mid:none;marker-end:none"
       id="rect2412"
       width="990"
       height="765"
       x="0"
       y="0"
       inkscape:export-xdpi="58.18"
       inkscape:export-ydpi="58.18"
       inkscape:export-filename="/home/mouse/Nethome/Images/Vector/BreakInBunny.png" />
  </g>
  <g
     inkscape:label="Bunny!"
     inkscape:groupmode="layer"
     id="layer1"
     style="display:inline"
     transform="translate(0,-509)">
    <circle
       style="color:#000000;display:inline;overflow:visible;visibility:visible;opacity:1;fill:#ffde4e;fill-opacity:1;fill-rule:nonzero;stroke:none;stroke-width:4.22085905;stroke-linecap:butt;stroke-linejoin:miter;stroke-miterlimit:4;stroke-dasharray:none;stroke-dashoffset:0;stroke-opacity:1;marker:none;marker-start:none;marker-mid:none;marker-end:none"
       id="path1485"
       inkscape:export-filename="/home/mouse/Nethome/Images/Vector/BreakInBunnyRound.png"
       inkscape:export-xdpi="84.3722"
       inkscape:export-ydpi="84.3722"
       cx="128"
       cy="637"
       r="125.88957" />
    <path
       style="fill:none;fill-opacity:0.75;fill-rule:evenodd;stroke:#ffffff;stroke-width:6.5950923;stroke-linecap:butt;stroke-linejoin:miter;stroke-miterlimit:4;stroke-dasharray:none;stroke-opacity:1"
       d="m 110.93252,513.95703 c 9.93865,58.52761 -13.391049,95.10672 -33.12883,110.42944 -83.9263901,65.15339 66.87489,148.96551 92.76074,77.3006 11.20133,-31.01086 -11.40051,-95.57338 72.88343,-109.3251"
       id="path2366"
       sodipodi:nodetypes="cssc"
       inkscape:export-filename="/home/mouse/Nethome/Images/Vector/BreakInBunnyRound.png"
       inkscape:export-xdpi="84.3722"
       inkscape:export-ydpi="84.3722"
       inkscape:connector-curvature="0" />
    <circle
       r="125.88957"
       cy="637"
       cx="128"
       inkscape:export-ydpi="84.3722"
       inkscape:export-xdpi="84.3722"
       inkscape:export-filename="/home/mouse/Nethome/Images/Vector/BreakInBunnyRound.png"
       id="circle1138"
       style="color:#000000;display:inline;overflow:visible;visibility:visible;opacity:1;fill:none;fill-opacity:1;fill-rule:nonzero;stroke:#000000;stroke-width:4.22085905;stroke-linecap:butt;stroke-linejoin:miter;stroke-miterlimit:4;stroke-dasharray:none;stroke-dashoffset:0;stroke-opacity:1;marker:none;marker-start:none;marker-mid:none;marker-end:none" />
    <path
       style="fill:url(#linearGradient2454);fill-opacity:1;fill-rule:evenodd;stroke:none;stroke-width:1.78252459;stroke-linecap:butt;stroke-linejoin:miter;stroke-miterlimit:4;stroke-dasharray:none;stroke-opacity:0.50196078"
       d="m 33.780738,634.40278 c 5.980784,-6.34885 24.631504,-24.35903 67.218292,-26.5034 C 78.770718,615.53533 73.267152,620.75097 77.8085,641.62472 64.055763,629.1151 46.843278,628.36928 33.780738,634.40278 Z"
       id="path2781"
       sodipodi:nodetypes="cccc"
       inkscape:export-filename="/home/mouse/Nethome/Images/Vector/BreakInBunnyRound.png"
       inkscape:export-xdpi="84.3722"
       inkscape:export-ydpi="84.3722"
       inkscape:connector-curvature="0" />
    <g
       id="g1134"
       transform="matrix(0.41467176,0,0,0.41467176,-118.09616,461.51251)">
      <path
         inkscape:connector-curvature="0"
         sodipodi:nodetypes="csssscsccssccssscccscccccscccsccccccsccccccccccccccccccscccsc"
         inkscape:export-ydpi="84.3722"
         inkscape:export-xdpi="84.3722"
         inkscape:export-filename="/home/mouse/Nethome/Images/Vector/BreakInBunnyRound.png"
         id="path2717"
         d="m 716.54383,248.75669 c -3.28621,0.0557 -6.65057,0.35534 -10.09375,0.90625 -72.85714,11.65716 -146.58068,88.95792 -155.90625,123.84375 -0.17455,0.65288 -0.3201,1.28759 -0.4375,1.875 -0.005,0.0237 -0.0231,0.0704 -0.0312,0.0937 -2.77051,7.27237 -3.82965,15.12745 -2.6875,23.375 -22.14422,7.43283 -42.7033,20.92039 -56.65626,44.15625 -6.41043,10.67528 2.82429,12.42308 7.5,10.25 -1.31511,4.88529 3.92448,7.53326 7.53125,5.375 0.14383,4.01596 6.753,3.62444 7.96876,2.125 1.91425,-2.36086 35.88066,-33.4136 82.6875,-23.6875 0.59857,0.12438 1.81241,1.00438 3.5625,2.5 -17.10718,5.22529 -56.77164,37.15395 -66.125,52.5625 -1.75647,0.92379 -3.17697,2.17319 -4.03125,3.78125 1e-5,2e-5 -2.07451,8.88011 -2,10.59375 0.2859,6.57521 23.11811,8.89866 26.59375,4.84375 2.99282,-3.49168 2.43763,-3.27874 2.6875,-10 9.73389,-7.61939 23.6129,-17.39943 38,-25.90625 1.71579,11.66543 13.29758,22.82283 22.78125,30.1875 -21.50025,18.3758 -32.73665,42.95663 -16.15625,68.375 28.54047,43.75359 85.92162,7.07385 113.65625,-33.5 17.09847,17.41251 49.27457,35.76048 70.8125,43.15625 -0.0413,0.1037 -0.0859,0.20813 -0.125,0.3125 -5.01331,1.99308 -6.75795,13.43933 -5.4375,28.28125 l -1.625,-2.6875 c 0.34775,0.84141 0.67385,1.69144 1.375,3.09375 0.11612,0.23223 0.23147,0.4584 0.34375,0.6875 0.56925,5.81554 1.58009,12.0985 3.0625,18.53125 l -2.65625,-3.46875 c 0.78111,1.13531 1.3669,2.44301 2.6875,4.09375 0.0453,0.0566 0.11165,0.13072 0.15625,0.1875 1.11596,4.73056 2.46454,9.53429 4.0625,14.25 l -1.78125,-1.71875 c 0.63405,0.75301 1.31374,1.71884 2.15625,2.6875 7.21349,20.8024 19.06158,39.91429 35.25,45.15625 0.0416,-0.11293 0.11496,-0.23079 0.15625,-0.34375 2.2379,1.46067 4.72001,2.40675 7.5,2.75 40.56731,5.00891 27.55789,-132.61991 4.375,-139.8125 0.005,-0.0643 -0.005,-0.12324 0,-0.1875 0,0 -37.20459,-4.81975 -35.21875,1.46875 0.009,0.0415 -0.008,0.0836 0,0.125 -17.96977,-13.16807 -36.86014,-37.04186 -48.25,-49.9375 2.9469,-3.18063 2.62693,-8.86749 4.125,-11.8125 3.41337,0.72302 7.04546,-0.18523 10.1875,-2.53125 10.88,3.49714 19.35689,0.0751 21,-10.84375 3.24734,-2.76995 6.19611,-12.93232 2.875,-18.875 2.01822,-6.18539 -1.08284,-12.49512 -7.40625,-14.09375 -3.84922,-5.39241 -10.49006,-8.29043 -14.75,-7.78125 -7.72384,-6.08871 -11.92456,-6.59826 -18.28125,-3.875 -6.85151,-3.04989 -12.3402,-1.57809 -14.375,1.15625 -5.82857,-1.55429 -13.34347,3.32396 -14,8.5625 -2.88575,1.57859 -3.69822,5.48236 -2.9375,8.90625 -4.43139,-2.78057 -7.57246,-4.41689 -7.96875,-4.3125 -0.18296,-0.35175 -11.63559,-22.33301 -29.1875,-38.8125 11.89743,-8.41024 20.02938,-18.94027 21.34375,-31.125 51.14861,0.86041 98.83889,14.09569 123.0625,18.5 32.05704,5.82858 28.55921,-37.8368 10.71875,-49.03125 -34.03015,-25.52261 -113.1364,-12.85631 -142.625,1.71875 -7.45502,-10.71652 -17.81645,-17.91389 -29.625,-22.09375 29.28352,-10.17776 71.02293,-24.049 97.4375,-27.21875 34.15178,-4.09821 4.01185,-55.64813 -45.28125,-54.8125 z"
         style="fill:#b4d0f2;fill-opacity:1;fill-rule:evenodd;stroke:#000000;stroke-width:16.25;stroke-linecap:round;stroke-linejoin:round;stroke-miterlimit:4;stroke-dasharray:none;stroke-opacity:1" />
      <path
         inkscape:connector-curvature="0"
         inkscape:export-ydpi="84.3722"
         inkscape:export-xdpi="84.3722"
         inkscape:export-filename="/home/mouse/Nethome/Images/Vector/BreakInBunnyRound.png"
         sodipodi:nodetypes="csssc"
         id="path2340"
         d="m 747.58936,501.79062 c 11.65715,11.65714 39.34286,49.54286 62.65715,61.2 27.64734,13.82367 6.14847,27.68572 -14.57143,23.31429 -29.9409,-6.31685 -102.00001,-49.54286 -90.34286,-71.4 11.65714,-21.85714 31.74954,-23.6219 42.25714,-13.11429 z"
         style="fill:#a0bcde;fill-opacity:1;fill-rule:evenodd;stroke:#000000;stroke-width:1px;stroke-linecap:butt;stroke-linejoin:miter;stroke-opacity:1" />
      <path
         inkscape:connector-curvature="0"
         inkscape:export-ydpi="84.3722"
         inkscape:export-xdpi="84.3722"
         inkscape:export-filename="/home/mouse/Nethome/Images/Vector/BreakInBunnyRound.png"
         sodipodi:nodetypes="ccccc"
         id="path2702"
         d="M 824.02692,693.08434 C 785.55835,680.62785 771.4183,589.95702 786.4132,583.99568 c 3.62166,-9.66443 16.59755,-16.40882 14.39935,-27.03347 -1.98584,-6.28851 35.23787,-1.46547 35.23787,-1.46547 -3.54155,46.7729 4.19243,93.57294 -12.0235,137.5876 z"
         style="fill:#ffffff;fill-opacity:1;fill-rule:evenodd;stroke:#000000;stroke-width:1px;stroke-linecap:butt;stroke-linejoin:miter;stroke-opacity:1" />
      <path
         inkscape:connector-curvature="0"
         inkscape:export-ydpi="84.3722"
         inkscape:export-xdpi="84.3722"
         inkscape:export-filename="/home/mouse/Nethome/Images/Vector/BreakInBunnyRound.png"
         sodipodi:nodetypes="csssc"
         id="path2334"
         d="m 602.65223,439.03633 c -15.93143,2.72 -61.00572,38.85715 -69.16572,54.4 -5.90552,11.2486 8.70462,21.2517 13.98857,16.32001 11.65715,-10.88 48.96,-38.08001 77.32571,-48.96001 7.22872,-2.77266 -13.23954,-23.28105 -22.14856,-21.76 z"
         style="fill:#a0bcde;fill-opacity:1;fill-rule:evenodd;stroke:#000000;stroke-width:1px;stroke-linecap:butt;stroke-linejoin:miter;stroke-opacity:1" />
      <path
         inkscape:connector-curvature="0"
         inkscape:export-ydpi="84.3722"
         inkscape:export-xdpi="84.3722"
         inkscape:export-filename="/home/mouse/Nethome/Images/Vector/BreakInBunnyRound.png"
         sodipodi:nodetypes="ccscc"
         id="path1457"
         d="m 692.02141,354.10441 c 27.40827,-15.0592 109.99746,-29.14328 144.96889,-2.91471 17.84045,11.19446 21.34181,54.85621 -10.71523,49.02763 -24.53994,-4.46183 -73.17204,-17.97528 -125.07642,-18.51614 -0.82947,-10.99371 -3.33472,-17.12199 -9.17724,-27.59678 z"
         style="fill:#a0bcde;fill-opacity:1;fill-rule:evenodd;stroke:#000000;stroke-width:1px;stroke-linecap:butt;stroke-linejoin:miter;stroke-opacity:1" />
      <path
         inkscape:connector-curvature="0"
         inkscape:export-ydpi="84.3722"
         inkscape:export-xdpi="84.3722"
         inkscape:export-filename="/home/mouse/Nethome/Images/Vector/BreakInBunnyRound.png"
         id="path1453"
         d="m 716.87597,248.79955 c -3.28621,0.0557 -6.65057,0.35534 -10.09375,0.90625 -72.85714,11.65715 -146.58068,88.95792 -155.90625,123.84375 -0.17452,0.65287 -0.3201,1.28759 -0.4375,1.875 -0.006,0.0315 -0.0251,0.0624 -0.0312,0.0937 -4.76523,12.50842 -4.44318,26.69276 3.375,41.75 27.68572,40.8 175.22861,7.92439 145.71875,-55.375 -7.36656,-15.80144 -19.93485,-25.80733 -34.78125,-31.0625 29.28352,-10.17777 71.02293,-24.049 97.4375,-27.21875 34.15178,-4.09822 4.01185,-55.64813 -45.28125,-54.8125 z"
         style="fill:#b4d0f2;fill-opacity:1;fill-rule:evenodd;stroke:#000000;stroke-width:1px;stroke-linecap:butt;stroke-linejoin:miter;stroke-opacity:1" />
      <path
         inkscape:connector-curvature="0"
         inkscape:export-ydpi="84.3722"
         inkscape:export-xdpi="84.3722"
         inkscape:export-filename="/home/mouse/Nethome/Images/Vector/BreakInBunnyRound.png"
         id="path2828"
         d="m 757.6686,261.41645 c 1.64721,31.7695 -56.39081,44.1076 -98.1875,65.6875 14.34375,53.07188 -56.0473,62.37856 -58.25,62.65625 21.28426,10.84292 42.5595,21.68833 63.84375,32.53125 28.01811,-12.65303 46.81713,-33.85164 34.4375,-60.40625 -7.36659,-15.80143 -19.93485,-25.80733 -34.78125,-31.0625 29.28349,-10.17776 71.02293,-24.049 97.4375,-27.21875 22.92518,-2.75102 16.86202,-26.87113 -4.5,-42.1875 z"
         style="fill:#a0bcde;fill-opacity:1;fill-rule:evenodd;stroke:none;stroke-width:1px;stroke-linecap:butt;stroke-linejoin:miter;stroke-opacity:1" />
      <path
         inkscape:connector-curvature="0"
         inkscape:export-ydpi="84.3722"
         inkscape:export-xdpi="84.3722"
         inkscape:export-filename="/home/mouse/Nethome/Images/Vector/BreakInBunnyRound.png"
         sodipodi:nodetypes="cssccssssc"
         id="path2332"
         d="m 711.04123,451.67862 c 0,0 -25.531,-49.23837 -58.96446,-55.92506 -33.43346,-6.68669 -122.44346,-16.92191 -160.99703,47.28132 -6.41044,10.67529 2.81896,12.4156 7.49467,10.24252 -1.3151,4.88528 3.91268,7.53773 7.51944,5.37947 0.14381,4.01596 6.77815,3.63941 7.99391,2.13997 1.91422,-2.36087 35.86499,-33.43347 82.67183,-23.70737 4.16618,0.8657 38.29651,38.29651 73.55361,65.65116 27.82711,21.59 89.35851,19.4522 86.31911,-7.90245 -2.0317,-18.2853 -44.37532,-43.76744 -45.59108,-43.15956 z"
         style="fill:#b4d0f2;fill-opacity:1;fill-rule:evenodd;stroke:#000000;stroke-width:1px;stroke-linecap:butt;stroke-linejoin:miter;stroke-opacity:1" />
      <path
         inkscape:connector-curvature="0"
         inkscape:export-ydpi="84.3722"
         inkscape:export-xdpi="84.3722"
         inkscape:export-filename="/home/mouse/Nethome/Images/Vector/BreakInBunnyRound.png"
         id="path3427"
         d="m 750.01235,504.3227 c -8.12428,3.3747 -16.2507,6.75029 -24.375,10.125 -4.29312,7.64534 -8.58185,15.29217 -12.875,22.9375 8.81991,10.03619 23.28948,20.61377 38.3125,29.4375 -0.0293,-0.094 -0.08,-0.17195 -0.125,-0.28125 -6.48357,-5.06529 -14.36776,-40.74514 13.1875,-45 0.26408,-0.0408 0.47866,-0.0863 0.6875,-0.15625 -5.81805,-6.73608 -10.92191,-12.83716 -14.8125,-17.0625 z"
         style="fill:#000000;fill-opacity:0.0627451;fill-rule:evenodd;stroke:none;stroke-width:1px;stroke-linecap:butt;stroke-linejoin:miter;stroke-opacity:1" />
      <path
         inkscape:connector-curvature="0"
         inkscape:export-ydpi="84.3722"
         inkscape:export-xdpi="84.3722"
         inkscape:export-filename="/home/mouse/Nethome/Images/Vector/BreakInBunnyRound.png"
         sodipodi:nodetypes="ccsscssssssssscz"
         id="path2836"
         d="m 592.32485,413.97895 c -13.87962,-1.64855 -70.31608,16.07858 -91.6875,44.25 1.03702,0.37333 2.08798,0.78351 3.125,1.15625 0.0274,0.01 0.0663,-0.01 0.0937,0 0.76729,-0.0737 1.54555,-0.29721 2.25,-0.71875 0.0258,0.72162 0.24912,1.29306 0.625,1.75 0.0126,0.005 0.0187,0.0267 0.0312,0.0312 1.31567,0.47221 2.62183,0.93492 3.9375,1.40625 0.009,0.003 0.022,-0.003 0.0312,0 1.48398,-0.0193 2.84985,-0.45335 3.34375,-1.0625 1.91419,-2.36088 35.88066,-33.4136 82.6875,-23.6875 4.16617,0.86569 38.3054,38.27035 73.5625,65.625 27.82712,21.58999 89.3519,19.4484 86.3125,-7.90625 -2.02374,-18.21387 -44.06392,-43.55923 -45.59375,-43.15625 10e-6,0 -6.77837,-13.08896 -17.9375,-26.6875 -11.70342,26.83829 -71.88521,-7.56788 -100.78125,-11 z"
         style="fill:#a0bcde;fill-opacity:1;fill-rule:evenodd;stroke:none;stroke-width:1px;stroke-linecap:butt;stroke-linejoin:miter;stroke-opacity:1" />
      <path
         inkscape:connector-curvature="0"
         inkscape:export-ydpi="84.3722"
         inkscape:export-xdpi="84.3722"
         inkscape:export-filename="/home/mouse/Nethome/Images/Vector/BreakInBunnyRound.png"
         sodipodi:nodetypes="ccsscs"
         id="path3432"
         d="m 672.04831,469.73114 c -15.65823,-9.23223 -0.55264,27.28378 22.55779,44.37281 0.009,0.002 0.0219,-0.002 0.0312,0 29.1792,7.76671 64.31517,1.5553 62,-19.28125 -1.13329,-10.19977 -20.04828,-26.78223 -32.13809,-35.68064 -2.41277,15.28063 -27.59515,25.24428 -52.45095,10.58908 z"
         style="fill:#000000;fill-opacity:0.0627451;fill-rule:evenodd;stroke:none;stroke-width:1px;stroke-linecap:butt;stroke-linejoin:miter;stroke-opacity:1" />
      <path
         inkscape:connector-curvature="0"
         inkscape:export-ydpi="84.3722"
         inkscape:export-xdpi="84.3722"
         inkscape:export-filename="/home/mouse/Nethome/Images/Vector/BreakInBunnyRound.png"
         sodipodi:nodetypes="csssc"
         id="path2336"
         d="m 631.01793,514.41919 c 0,0 -46.62857,-26.81143 -33.41714,-50.90285 10.26078,-18.71084 61.00571,-15.15429 78.88,0.77714 14.81933,13.20853 29.92,29.14286 22.14857,33.80571 -7.77143,4.66286 -67.61143,16.32 -67.61143,16.32 z"
         style="fill:#b4d0f2;fill-opacity:1;fill-rule:evenodd;stroke:#000000;stroke-width:1px;stroke-linecap:butt;stroke-linejoin:miter;stroke-opacity:1" />
      <path
         inkscape:connector-curvature="0"
         inkscape:export-ydpi="84.3722"
         inkscape:export-xdpi="84.3722"
         inkscape:export-filename="/home/mouse/Nethome/Images/Vector/BreakInBunnyRound.png"
         sodipodi:nodetypes="cccc"
         id="path2820"
         d="m 615.51235,463.72895 c -13.31875,5.45851 3.15289,31.88646 18,38 12.22705,-4.58514 42.22373,-21.09956 54.45077,-25.68469 -31.18749,-33.70765 -58.80449,1.00345 -72.45077,-12.31531 z"
         style="fill:#a0bcde;fill-opacity:1;fill-rule:evenodd;stroke:none;stroke-width:1px;stroke-linecap:butt;stroke-linejoin:miter;stroke-opacity:1" />
      <path
         inkscape:connector-curvature="0"
         inkscape:export-ydpi="84.3722"
         inkscape:export-xdpi="84.3722"
         inkscape:export-filename="/home/mouse/Nethome/Images/Vector/BreakInBunnyRound.png"
         sodipodi:nodetypes="ccccccccccccc"
         id="path2338"
         d="m 787.89372,481.98502 c -1.6431,10.91886 -10.11396,14.32719 -20.99396,10.83005 -5.39004,4.02448 -12.24555,3.83575 -16.90841,-1.60425 -5.82856,-1.16571 -8.97602,-3.81671 -9.76424,-8.02123 -3.75727,-0.0808 -10.3154,-7.27658 -11.26857,-11.26857 -3.59233,-1.35283 -7.38286,-4.66285 -7.38286,-11.26857 -3.62883,-3.14183 -4.06175,-11.16555 0.38857,-13.6 0.65654,-5.23855 8.16,-10.10286 13.98857,-8.54857 2.03479,-2.73433 7.52563,-4.2156 14.37714,-1.16571 6.35668,-2.72325 10.53902,-2.203 18.26286,3.88571 4.25995,-0.50917 10.9165,2.37902 14.76572,7.77143 6.32341,1.59863 9.41217,7.9031 7.39395,14.08849 3.32111,5.94269 0.38857,16.13127 -2.85877,18.90122 z"
         style="fill:#ffffff;fill-opacity:1;fill-rule:evenodd;stroke:#000000;stroke-width:1;stroke-linecap:butt;stroke-linejoin:miter;stroke-miterlimit:4;stroke-dasharray:1, 4;stroke-dashoffset:0;stroke-opacity:1" />
      <path
         inkscape:connector-curvature="0"
         inkscape:export-ydpi="84.3722"
         inkscape:export-xdpi="84.3722"
         inkscape:export-filename="/home/mouse/Nethome/Images/Vector/BreakInBunnyRound.png"
         style="fill:#dac8be;fill-opacity:1;fill-rule:evenodd;stroke:#000000;stroke-width:1px;stroke-linecap:butt;stroke-linejoin:miter;stroke-opacity:1"
         d="M 727.67349,486.15947 C 702.4379,448.30575 559.18822,508.2992 602.06278,574.02751 644.9315,639.74684 752.90049,524.00032 727.67349,486.15947 Z"
         id="path2350"
         sodipodi:nodetypes="czz" />
      <path
         inkscape:connector-curvature="0"
         inkscape:export-ydpi="84.3722"
         inkscape:export-xdpi="84.3722"
         inkscape:export-filename="/home/mouse/Nethome/Images/Vector/BreakInBunnyRound.png"
         sodipodi:nodetypes="czz"
         id="path2352"
         d="m 834.80795,555.42576 c -23.9528,-2.54006 -44.41709,134.98194 -3.12698,140.0801 41.28447,5.09744 27.07163,-137.54091 3.12698,-140.0801 z"
         style="fill:#d0beb4;fill-opacity:1;fill-rule:evenodd;stroke:#000000;stroke-width:1;stroke-linecap:butt;stroke-linejoin:miter;stroke-miterlimit:4;stroke-dasharray:none;stroke-opacity:1" />
      <path
         inkscape:connector-curvature="0"
         inkscape:export-ydpi="84.3722"
         inkscape:export-xdpi="84.3722"
         inkscape:export-filename="/home/mouse/Nethome/Images/Vector/BreakInBunnyRound.png"
         sodipodi:nodetypes="ccccccccccc"
         id="path2704"
         d="m 778.82485,608.1352 c -0.77221,0.45317 -0.20138,1.39145 -0.11471,2.04784 0.35101,2.29892 0.27119,4.72001 1.26784,6.87489 0.63426,1.49532 1.75185,2.70309 2.90373,3.81816 0.96881,1.06107 2.63041,2.54728 3.22579,2.8945 0.61111,0.30459 1.35843,1.37846 2.0541,0.69282 0.36864,-0.72072 -0.49967,-1.29346 -0.98942,-1.66623 -1.66917,-1.82053 -2.60895,-4.14703 -3.60731,-6.36992 -0.92378,-2.18759 -1.6875,-4.47849 -3.01857,-6.46203 -0.54447,-0.59916 -0.78974,-1.49761 -1.57274,-1.85585 z"
         style="fill:#000000;fill-opacity:1;fill-rule:evenodd;stroke:none;stroke-width:1.25;stroke-linecap:round;stroke-linejoin:round;stroke-miterlimit:4;stroke-dasharray:none;stroke-opacity:1" />
      <path
         inkscape:connector-curvature="0"
         inkscape:export-ydpi="84.3722"
         inkscape:export-xdpi="84.3722"
         inkscape:export-filename="/home/mouse/Nethome/Images/Vector/BreakInBunnyRound.png"
         sodipodi:nodetypes="cssc"
         id="path2706"
         d="m 781.2163,628.09772 c 0.91044,1.21392 1.50704,2.62486 2.96425,4.44637 1.73769,2.17211 2.97499,4.51619 5.18742,6.17551 0.0932,0.0699 0.16468,0.16468 0.24702,0.24702"
         style="fill:none;fill-opacity:0.75;fill-rule:evenodd;stroke:#000000;stroke-width:1.25;stroke-linecap:round;stroke-linejoin:round;stroke-miterlimit:4;stroke-dasharray:none;stroke-opacity:1" />
      <path
         inkscape:connector-curvature="0"
         inkscape:export-ydpi="84.3722"
         inkscape:export-xdpi="84.3722"
         inkscape:export-filename="/home/mouse/Nethome/Images/Vector/BreakInBunnyRound.png"
         sodipodi:nodetypes="csc"
         id="path2708"
         d="m 785.38789,644.05413 c 1.03466,0.776 2.1103,2.46603 3.66645,4.19657 0.85303,0.94864 2.55453,1.82778 2.75608,1.97894"
         style="fill:none;fill-opacity:0.75;fill-rule:evenodd;stroke:#000000;stroke-width:1.25;stroke-linecap:round;stroke-linejoin:round;stroke-miterlimit:4;stroke-dasharray:none;stroke-opacity:1" />
      <path
         inkscape:connector-curvature="0"
         inkscape:export-ydpi="84.3722"
         inkscape:export-xdpi="84.3722"
         inkscape:export-filename="/home/mouse/Nethome/Images/Vector/BreakInBunnyRound.png"
         id="path3437"
         d="m 697.3561,474.3852 c -10.43034,0.0915 -22.29856,2.39287 -34.1875,6.40625 1.16406,0.78751 1.9375,2.11877 1.9375,3.625 -10e-6,2.40997 -1.96504,4.375 -4.375,4.375 -2.40997,10e-6 -4.375,-1.96504 -4.375,-4.375 0,-0.41951 0.0448,-0.8339 0.15625,-1.21875 -21.02674,8.25353 -41.27727,21.73658 -52.75,38.0625 0.83649,0.79766 1.34375,1.91361 1.34375,3.15625 -10e-6,2.40994 -1.96504,4.375 -4.375,4.375 -0.4707,0 -0.91833,-0.0802 -1.34375,-0.21875 -0.002,0.004 -0.0292,-0.004 -0.0312,0 -5.49279,10.72379 -7.09846,22.42345 -2.8125,34.5 0.54464,-1.6965 2.12056,-2.93747 3.96875,-3.03125 0.0744,-0.004 0.14344,0 0.21875,0 2.40997,0 4.375,1.96504 4.375,4.375 -10e-6,2.40994 -1.96504,4.375 -4.375,4.375 -0.6778,0 -1.33266,-0.16044 -1.90625,-0.4375 0.93276,1.87971 2.01624,3.7961 3.25,5.6875 1.7722,2.71685 3.6443,5.10383 5.625,7.21875 0.73705,-0.70496 1.73168,-1.16391 2.8125,-1.21875 0.0744,-0.004 0.14344,0 0.21875,0 2.40997,0 4.375,1.96504 4.375,4.375 0,0.96021 -0.31599,1.8397 -0.84375,2.5625 15.00674,10.51583 33.95516,8.01954 52.21875,-1.46875 -0.0901,-0.34903 -0.125,-0.71719 -0.125,-1.09375 -10e-6,-2.33468 1.85051,-4.258 4.15625,-4.375 0.0744,-0.004 0.14344,0 0.21875,0 1.18615,0 2.27316,0.47919 3.0625,1.25 13.31121,-8.32551 25.90629,-20.01519 35.90625,-32.625 -1.91123,-0.46825 -3.34375,-2.19777 -3.34375,-4.25 -10e-6,-2.33468 1.85051,-4.258 4.15625,-4.375 0.0744,-0.004 0.14344,0 0.21875,0 1.61919,0 3.02479,0.87444 3.78125,2.1875 3.33785,-4.7272 6.29323,-9.50908 8.75,-14.25 -0.715,0.50908 -1.58986,0.8125 -2.53125,0.8125 -2.40997,10e-6 -4.375,-1.96504 -4.375,-4.375 -10e-6,-2.33468 1.85051,-4.258 4.15625,-4.375 0.0744,-0.004 0.14344,0 0.21875,0 2.35348,0 4.28586,1.88646 4.375,4.21875 2.4826,-5.32139 4.30616,-10.54508 5.34375,-15.46875 -2.2802,-0.14528 -4.09375,-2.05918 -4.09375,-4.375 -10e-6,-2.33465 1.85051,-4.258 4.15625,-4.375 0.0744,-0.004 0.14344,0 0.21875,0 0.24476,0 0.48476,0.0236 0.71875,0.0625 0.0208,-5.29266 -1.17245,-10.02427 -3.78125,-13.9375 -0.83824,-1.25737 -1.81874,-2.39267 -2.90625,-3.4375 0.22188,0.52312 0.34375,1.08501 0.34375,1.6875 -10e-6,2.40997 -1.96504,4.375 -4.375,4.375 -2.40997,10e-6 -4.375,-1.96504 -4.375,-4.375 -10e-6,-2.33465 1.85051,-4.258 4.15625,-4.375 0.0744,-0.004 0.14344,0 0.21875,0 0.25418,0 0.50751,0.0206 0.75,0.0625 -6.05208,-3.99099 -14.46719,-5.80348 -24.125,-5.71875 z m -17,5.65625 c 0.0535,-0.005 0.10221,0.003 0.15625,0 0.0744,-0.004 0.14344,0 0.21875,0 2.40996,0 4.375,1.96504 4.375,4.375 -10e-6,2.40997 -1.96504,4.375 -4.375,4.375 -2.40997,10e-6 -4.375,-1.96504 -4.375,-4.375 -10e-6,-2.27993 1.76989,-4.1788 4,-4.375 z m 20,0 c 0.0535,-0.005 0.10221,0.003 0.15625,0 0.0744,-0.004 0.14344,0 0.21875,0 2.40996,0 4.375,1.96504 4.375,4.375 -10e-6,2.40997 -1.96504,4.375 -4.375,4.375 -2.40997,10e-6 -4.375,-1.96504 -4.375,-4.375 -10e-6,-2.27993 1.76989,-4.1788 4,-4.375 z m -70,20 c 0.0535,-0.005 0.10221,0.003 0.15625,0 0.0744,-0.004 0.14344,0 0.21875,0 2.40995,0 4.375,1.96504 4.375,4.375 -10e-6,2.40997 -1.96504,4.375 -4.375,4.375 -2.40998,10e-6 -4.375,-1.96504 -4.375,-4.375 -10e-6,-2.27993 1.76989,-4.1788 4,-4.375 z m 20,0 c 0.0535,-0.005 0.10221,0.003 0.15625,0 0.0744,-0.004 0.14344,0 0.21875,0 2.40996,0 4.375,1.96504 4.375,4.375 -10e-6,2.40997 -1.96504,4.375 -4.375,4.375 -2.40997,10e-6 -4.375,-1.96504 -4.375,-4.375 -10e-6,-2.27993 1.76989,-4.1788 4,-4.375 z m 20,0 c 0.0535,-0.005 0.10221,0.003 0.15625,0 0.0744,-0.004 0.14344,0 0.21875,0 2.40996,0 4.375,1.96504 4.375,4.375 -10e-6,2.40997 -1.96504,4.375 -4.375,4.375 -2.40997,10e-6 -4.375,-1.96504 -4.375,-4.375 -10e-6,-2.27993 1.76989,-4.1788 4,-4.375 z m 20,0 c 0.0535,-0.005 0.10221,0.003 0.15625,0 0.0744,-0.004 0.14344,0 0.21875,0 2.40996,0 4.375,1.96504 4.375,4.375 -10e-6,2.40997 -1.96504,4.375 -4.375,4.375 -2.40997,10e-6 -4.375,-1.96504 -4.375,-4.375 -10e-6,-2.27993 1.76989,-4.1788 4,-4.375 z m 20,0 c 0.0535,-0.005 0.10221,0.003 0.15625,0 0.0744,-0.004 0.14344,0 0.21875,0 2.40996,0 4.375,1.96504 4.375,4.375 -10e-6,2.40997 -1.96504,4.375 -4.375,4.375 -2.40997,10e-6 -4.375,-1.96504 -4.375,-4.375 -10e-6,-2.27993 1.76989,-4.1788 4,-4.375 z m -90,20 c 0.0535,-0.005 0.10221,0.003 0.15625,0 0.0744,-0.004 0.14344,0 0.21875,0 2.40996,0 4.375,1.96504 4.375,4.375 -10e-6,2.40994 -1.96504,4.375 -4.375,4.375 -2.40997,10e-6 -4.375,-1.96504 -4.375,-4.375 0,-2.27996 1.76989,-4.1788 4,-4.375 z m 20,0 c 0.0535,-0.005 0.10221,0.003 0.15625,0 0.0744,-0.004 0.14344,0 0.21875,0 2.40996,0 4.375,1.96504 4.375,4.375 -10e-6,2.40994 -1.96504,4.375 -4.375,4.375 -2.40997,10e-6 -4.375,-1.96504 -4.375,-4.375 -10e-6,-2.27996 1.76989,-4.1788 4,-4.375 z m 20,0 c 0.0535,-0.005 0.10221,0.003 0.15625,0 0.0744,-0.004 0.14344,0 0.21875,0 2.40996,0 4.375,1.96504 4.375,4.375 -10e-6,2.40994 -1.96504,4.375 -4.375,4.375 -2.40997,10e-6 -4.375,-1.96504 -4.375,-4.375 -10e-6,-2.27996 1.76989,-4.1788 4,-4.375 z m 20,0 c 0.0535,-0.005 0.10221,0.003 0.15625,0 0.0744,-0.004 0.14344,0 0.21875,0 2.40996,0 4.375,1.96504 4.375,4.375 -10e-6,2.40994 -1.96504,4.375 -4.375,4.375 -2.40997,10e-6 -4.375,-1.96504 -4.375,-4.375 -10e-6,-2.27996 1.76989,-4.1788 4,-4.375 z m 20,0 c 0.0535,-0.005 0.10221,0.003 0.15625,0 0.0744,-0.004 0.14344,0 0.21875,0 2.40996,0 4.375,1.96504 4.375,4.375 -10e-6,2.40994 -1.96504,4.375 -4.375,4.375 -2.40997,10e-6 -4.375,-1.96504 -4.375,-4.375 -10e-6,-2.27996 1.76989,-4.1788 4,-4.375 z m -90,20 c 0.0535,-0.005 0.10221,0.003 0.15625,0 0.0744,-0.004 0.14344,0 0.21875,0 2.40997,0 4.375,1.96504 4.375,4.375 -10e-6,2.40994 -1.96504,4.375 -4.375,4.375 -2.40996,10e-6 -4.375,-1.96504 -4.375,-4.375 0,-2.27996 1.76989,-4.1788 4,-4.375 z m 20,0 c 0.0535,-0.005 0.10221,0.003 0.15625,0 0.0744,-0.004 0.14344,0 0.21875,0 2.40996,0 4.375,1.96504 4.375,4.375 -10e-6,2.40994 -1.96504,4.375 -4.375,4.375 -2.40997,10e-6 -4.375,-1.96504 -4.375,-4.375 -10e-6,-2.27996 1.76989,-4.1788 4,-4.375 z m 20,0 c 0.0535,-0.005 0.10221,0.003 0.15625,0 0.0744,-0.004 0.14344,0 0.21875,0 2.40996,0 4.375,1.96504 4.375,4.375 -10e-6,2.40994 -1.96504,4.375 -4.375,4.375 -2.40997,10e-6 -4.375,-1.96504 -4.375,-4.375 -10e-6,-2.27996 1.76989,-4.1788 4,-4.375 z m 20,0 c 0.0535,-0.005 0.10221,0.003 0.15625,0 0.0744,-0.004 0.14344,0 0.21875,0 2.40996,0 4.375,1.96504 4.375,4.375 -10e-6,2.40994 -1.96504,4.375 -4.375,4.375 -2.40997,10e-6 -4.375,-1.96504 -4.375,-4.375 -10e-6,-2.27996 1.76989,-4.1788 4,-4.375 z m 20,0 c 0.0535,-0.005 0.10221,0.003 0.15625,0 0.0744,-0.004 0.14344,0 0.21875,0 2.40996,0 4.375,1.96504 4.375,4.375 -10e-6,2.40994 -1.96504,4.375 -4.375,4.375 -2.40997,10e-6 -4.375,-1.96504 -4.375,-4.375 -10e-6,-2.27996 1.76989,-4.1788 4,-4.375 z m -70,20 c 0.0535,-0.005 0.10221,0.003 0.15625,0 0.0744,-0.004 0.14344,0 0.21875,0 2.40996,0 4.375,1.96504 4.375,4.375 -10e-6,2.40994 -1.96504,4.375 -4.375,4.375 -2.40997,10e-6 -4.375,-1.96504 -4.375,-4.375 0,-2.27996 1.76989,-4.1788 4,-4.375 z m 20,0 c 0.0535,-0.005 0.10221,0.003 0.15625,0 0.0744,-0.004 0.14344,0 0.21875,0 2.40996,0 4.375,1.96504 4.375,4.375 -10e-6,2.40994 -1.96504,4.375 -4.375,4.375 -2.40997,10e-6 -4.375,-1.96504 -4.375,-4.375 -10e-6,-2.27996 1.76989,-4.1788 4,-4.375 z m 20,0 c 0.0535,-0.005 0.10221,0.003 0.15625,0 0.0744,-0.004 0.14344,0 0.21875,0 2.40996,0 4.375,1.96504 4.375,4.375 -10e-6,2.40994 -1.96504,4.375 -4.375,4.375 -2.40997,10e-6 -4.375,-1.96504 -4.375,-4.375 -10e-6,-2.27996 1.76989,-4.1788 4,-4.375 z m 20,0 c 0.0535,-0.005 0.10221,0.003 0.15625,0 0.0744,-0.004 0.14344,0 0.21875,0 2.40996,0 4.375,1.96504 4.375,4.375 -10e-6,2.40994 -1.96504,4.375 -4.375,4.375 -2.40997,10e-6 -4.375,-1.96504 -4.375,-4.375 -10e-6,-2.27996 1.76989,-4.1788 4,-4.375 z m -50,20 c 0.0535,-0.005 0.10221,0.003 0.15625,0 0.0744,-0.004 0.14344,0 0.21875,0 2.40996,0 4.375,1.96504 4.375,4.375 -10e-6,2.40994 -1.96504,4.375 -4.375,4.375 -2.40997,10e-6 -4.375,-1.96504 -4.375,-4.375 -10e-6,-2.27996 1.76989,-4.1788 4,-4.375 z m 20,0 c 0.0535,-0.005 0.10221,0.003 0.15625,0 0.0744,-0.004 0.14344,0 0.21875,0 2.40996,0 4.375,1.96504 4.375,4.375 -10e-6,2.40994 -1.96504,4.375 -4.375,4.375 -2.40997,10e-6 -4.375,-1.96504 -4.375,-4.375 -10e-6,-2.27996 1.76989,-4.1788 4,-4.375 z"
         style="fill:#000000;fill-opacity:0.14117647;fill-rule:evenodd;stroke:#000000;stroke-width:1px;stroke-linecap:butt;stroke-linejoin:miter;stroke-opacity:1" />
      <ellipse
         ry="25.5"
         rx="24.771429"
         cy="593.78571"
         cx="236.05714"
         inkscape:export-ydpi="84.3722"
         inkscape:export-xdpi="84.3722"
         inkscape:export-filename="/home/mouse/Nethome/Images/Vector/BreakInBunnyRound.png"
         transform="translate(461.9894,-86.89509)"
         id="path2712"
         style="fill:#ab3930;fill-opacity:1;stroke:#000000;stroke-width:1;stroke-linecap:round;stroke-linejoin:round;stroke-miterlimit:4;stroke-dasharray:none;stroke-dashoffset:0;stroke-opacity:1" />
      <path
         inkscape:connector-curvature="0"
         inkscape:export-ydpi="84.3722"
         inkscape:export-xdpi="84.3722"
         inkscape:export-filename="/home/mouse/Nethome/Images/Vector/BreakInBunnyRound.png"
         style="fill:#000000;fill-opacity:0.14117647;fill-rule:evenodd;stroke:#000000;stroke-width:0.73831123px;stroke-linecap:butt;stroke-linejoin:miter;stroke-opacity:1"
         d="m 820.17315,571.2651 c -3.45813,8.04066 -6.35253,18.38315 -8.44324,29.67142 0.76367,-0.46408 1.65368,-0.33357 2.3669,0.48454 1.14115,1.30897 1.41197,3.88171 0.60296,5.72805 -0.80903,1.84634 -2.39917,2.2845 -3.54032,0.97554 -0.19864,-0.22787 -0.37979,-0.4873 -0.52463,-0.78166 -3.15049,20.59195 -3.56413,43.42964 0.31503,61.08653 0.65853,-0.20762 1.35722,0.01 1.94563,0.68482 1.14113,1.30895 1.41197,3.88173 0.60294,5.72805 -0.15801,0.36061 -0.34623,0.66002 -0.55466,0.91066 10e-4,0.004 -0.0117,0.0201 -0.0105,0.024 3.23394,10.03273 8.23487,17.61748 15.39209,20.89322 -0.62049,-1.33871 -0.67908,-3.22009 -0.10305,-4.68697 0.0232,-0.059 0.0482,-0.10989 0.0734,-0.16759 0.80903,-1.84634 2.39915,-2.28449 3.54031,-0.97554 1.14114,1.30896 1.41197,3.88173 0.60293,5.72807 -0.22752,0.51927 -0.52332,0.93383 -0.84708,1.22279 1.20321,0.30634 2.47436,0.51713 3.78413,0.59923 1.88139,0.11792 3.64012,-0.0199 5.30648,-0.38863 -0.0864,-0.94756 0.0302,-1.95884 0.36705,-2.81668 0.0232,-0.059 0.0482,-0.10989 0.0734,-0.16759 0.80903,-1.84633 2.39916,-2.28449 3.54031,-0.97553 0.45467,0.52153 0.76504,1.2413 0.93013,2.03823 10.01712,-5.78542 15.19605,-21.65813 16.83425,-40.80383 -0.19552,-0.12051 -0.38154,-0.29377 -0.55985,-0.49829 -1.10551,-1.26807 -1.39502,-3.73044 -0.67639,-5.56047 0.0232,-0.059 0.0482,-0.1099 0.0734,-0.16759 0.39819,-0.90875 0.98999,-1.48126 1.61997,-1.66733 0.5263,-14.72 -0.78078,-30.7186 -3.39473,-45.22877 -0.86331,1.20991 -2.16317,1.36802 -3.13492,0.25336 -1.10552,-1.26806 -1.39502,-3.73044 -0.67638,-5.56045 0.0232,-0.059 0.0482,-0.10991 0.0734,-0.16761 0.54357,-1.24049 1.42948,-1.84242 2.30517,-1.70877 -1.11789,-5.12477 -2.39005,-9.98621 -3.8102,-14.44341 10e-4,0.82428 -0.14899,1.65933 -0.46501,2.38057 -0.80903,1.84633 -2.39917,2.28449 -3.54031,0.97553 -1.10551,-1.26806 -1.39501,-3.73044 -0.67638,-5.56047 0.0232,-0.059 0.0481,-0.10989 0.0734,-0.16759 0.79006,-1.80305 2.33202,-2.25888 3.46631,-1.06039 -1.68634,-4.79229 -3.54767,-9.02657 -5.53078,-12.49576 -0.83425,1.66801 -2.34932,2.01789 -3.44589,0.76005 -1.10549,-1.26804 -1.39501,-3.73042 -0.67637,-5.56045 0.0232,-0.059 0.0481,-0.1099 0.0734,-0.1676 0.0821,-0.18752 0.17388,-0.35859 0.27087,-0.5167 -2.49918,-2.89059 -5.14022,-4.54639 -7.86896,-4.67317 -0.87678,-0.0407 -1.74352,0.0938 -2.60333,0.35948 0.3222,0.11415 0.62917,0.32597 0.91446,0.6532 1.14114,1.30897 1.41196,3.88174 0.60294,5.72806 -0.80902,1.84635 -2.39915,2.28449 -3.5403,0.97554 -1.1055,-1.26805 -1.39502,-3.73043 -0.67638,-5.56046 0.0232,-0.059 0.0482,-0.1099 0.0734,-0.1676 0.0853,-0.19473 0.18011,-0.37764 0.28138,-0.54064 -3.92148,2.46896 -7.60465,7.93153 -10.80663,15.37664 z m -3.02856,16.09629 c 0.0157,-0.0436 0.0356,-0.0768 0.0525,-0.1197 0.0232,-0.059 0.0481,-0.1099 0.0734,-0.1676 0.80902,-1.84633 2.39915,-2.28449 3.54029,-0.97553 1.14116,1.30897 1.41198,3.88173 0.60296,5.72805 -0.80903,1.84635 -2.39916,2.28449 -3.54031,0.97554 -1.07958,-1.23832 -1.38457,-3.62565 -0.72883,-5.44076 z m 6.71397,-15.32249 c 0.0157,-0.0436 0.0356,-0.0768 0.0525,-0.11971 0.0232,-0.059 0.0481,-0.10989 0.0734,-0.16759 0.80901,-1.84633 2.39915,-2.28449 3.54029,-0.97553 1.14115,1.30896 1.41197,3.88172 0.60294,5.72805 -0.80902,1.84634 -2.39914,2.28449 -3.5403,0.97553 -1.07958,-1.23833 -1.38457,-3.62565 -0.72882,-5.44075 z m -14.0286,64.49164 c 0.0157,-0.0436 0.0356,-0.0768 0.0524,-0.11972 0.0232,-0.059 0.0482,-0.1099 0.0734,-0.16758 0.80902,-1.84633 2.39916,-2.2845 3.54031,-0.97555 1.14114,1.30898 1.41196,3.88172 0.60295,5.72806 -0.80903,1.84635 -2.39917,2.2845 -3.54031,0.97554 -1.07958,-1.23833 -1.38458,-3.62566 -0.72883,-5.44075 z m 6.71396,-15.32251 c 0.0157,-0.0436 0.0356,-0.0768 0.0525,-0.1197 0.0232,-0.059 0.0482,-0.1099 0.0734,-0.16759 0.80903,-1.84633 2.39916,-2.2845 3.54031,-0.97554 1.14115,1.30897 1.41197,3.88173 0.60296,5.72805 -0.80904,1.84635 -2.39917,2.2845 -3.54032,0.97554 -1.07958,-1.23832 -1.38457,-3.62565 -0.72883,-5.44076 z m 6.71397,-15.32249 c 0.0157,-0.0436 0.0356,-0.0768 0.0525,-0.11971 0.0232,-0.059 0.0481,-0.10989 0.0734,-0.16758 0.80903,-1.84634 2.39916,-2.2845 3.5403,-0.97554 1.14116,1.30897 1.41197,3.88172 0.60295,5.72805 -0.80902,1.84634 -2.39916,2.28449 -3.54031,0.97554 -1.07958,-1.23833 -1.38456,-3.62565 -0.72882,-5.44076 z m 6.71397,-15.3225 c 0.0157,-0.0436 0.0356,-0.0768 0.0525,-0.1197 0.0232,-0.059 0.0481,-0.10989 0.0734,-0.1676 0.80903,-1.84633 2.39916,-2.28449 3.54031,-0.97553 1.14115,1.30896 1.41196,3.88173 0.60294,5.72805 -0.80902,1.84635 -2.39916,2.28449 -3.5403,0.97554 -1.07958,-1.23833 -1.38457,-3.62565 -0.72882,-5.44076 z m 6.71395,-15.32249 c 0.0157,-0.0436 0.0356,-0.0768 0.0525,-0.11971 0.0232,-0.059 0.0482,-0.10989 0.0734,-0.16759 0.80901,-1.84633 2.39916,-2.28449 3.5403,-0.97553 1.14114,1.30896 1.41197,3.88172 0.60295,5.72806 -0.80903,1.84633 -2.39917,2.28449 -3.5403,0.97552 -1.07959,-1.23833 -1.38457,-3.62564 -0.72884,-5.44075 z m -20.74255,79.81413 c 0.0157,-0.0436 0.0356,-0.0768 0.0524,-0.11971 0.0232,-0.059 0.0482,-0.1099 0.0734,-0.16759 0.80902,-1.84633 2.39915,-2.28449 3.5403,-0.97554 1.14114,1.30895 1.41197,3.88173 0.60295,5.72805 -0.80903,1.84635 -2.39916,2.2845 -3.5403,0.97554 -1.0796,-1.23835 -1.38458,-3.62565 -0.72883,-5.44075 z m 6.71396,-15.3225 c 0.0157,-0.0436 0.0356,-0.0768 0.0524,-0.11971 0.0232,-0.059 0.0482,-0.10989 0.0734,-0.16758 0.80903,-1.84634 2.39916,-2.2845 3.54031,-0.97555 1.14113,1.30896 1.41197,3.88173 0.60293,5.72805 -0.80901,1.84635 -2.39914,2.2845 -3.54029,0.97555 -1.07959,-1.23835 -1.38457,-3.62566 -0.72883,-5.44076 z m 6.71397,-15.3225 c 0.0157,-0.0436 0.0356,-0.0768 0.0524,-0.1197 0.0232,-0.059 0.0482,-0.10989 0.0734,-0.16759 0.80903,-1.84633 2.39916,-2.2845 3.54032,-0.97554 1.14113,1.30895 1.41195,3.88173 0.60293,5.72805 -0.80901,1.84635 -2.39915,2.2845 -3.5403,0.97554 -1.07959,-1.23834 -1.38457,-3.62564 -0.72882,-5.44076 z m 6.71395,-15.32249 c 0.0157,-0.0436 0.0356,-0.0768 0.0525,-0.11971 0.0232,-0.059 0.0482,-0.10989 0.0734,-0.16759 0.80903,-1.84634 2.39917,-2.28449 3.54032,-0.97554 1.14113,1.30897 1.41195,3.88173 0.60294,5.72806 -0.80902,1.84634 -2.39917,2.2845 -3.5403,0.97554 -1.0796,-1.23833 -1.38457,-3.62565 -0.72884,-5.44076 z m 6.71397,-15.3225 c 0.0157,-0.0435 0.0356,-0.0768 0.0524,-0.1197 0.0232,-0.059 0.0482,-0.10989 0.0734,-0.1676 0.80902,-1.84632 2.39917,-2.28449 3.5403,-0.97553 1.14114,1.30895 1.41197,3.88173 0.60295,5.72806 -0.80902,1.84634 -2.39916,2.28449 -3.54031,0.97552 -1.07958,-1.23833 -1.38455,-3.62564 -0.72882,-5.44075 z m -20.74255,79.81414 c 0.0157,-0.0436 0.0356,-0.0768 0.0524,-0.11971 0.0232,-0.059 0.0482,-0.1099 0.0734,-0.16759 0.80902,-1.84635 2.39915,-2.28449 3.5403,-0.97555 1.14114,1.30896 1.41197,3.88174 0.60293,5.72806 -0.80901,1.84634 -2.39914,2.28449 -3.54029,0.97554 -1.07959,-1.23835 -1.38457,-3.62566 -0.72882,-5.44075 z m 6.71396,-15.3225 c 0.0157,-0.0436 0.0356,-0.0768 0.0524,-0.11972 0.0232,-0.059 0.0482,-0.10988 0.0734,-0.16758 0.80903,-1.84633 2.39915,-2.2845 3.54031,-0.97554 1.14113,1.30896 1.41197,3.88173 0.60293,5.72806 -0.80901,1.84634 -2.39915,2.2845 -3.54029,0.97553 -1.0796,-1.23834 -1.38457,-3.62564 -0.72883,-5.44075 z m 6.71397,-15.3225 c 0.0157,-0.0436 0.0356,-0.0768 0.0524,-0.11971 0.0232,-0.059 0.0482,-0.10989 0.0734,-0.16758 0.80902,-1.84634 2.39915,-2.2845 3.54031,-0.97555 1.14114,1.30897 1.41196,3.88173 0.60294,5.72806 -0.80902,1.84634 -2.39915,2.2845 -3.5403,0.97554 -1.07959,-1.23834 -1.38457,-3.62565 -0.72882,-5.44076 z m 6.71395,-15.3225 c 0.0157,-0.0435 0.0356,-0.0768 0.0525,-0.1197 0.0232,-0.059 0.0482,-0.10989 0.0734,-0.16759 0.80903,-1.84633 2.39916,-2.2845 3.54031,-0.97554 1.14113,1.30896 1.41196,3.88173 0.60294,5.72806 -0.80901,1.84634 -2.39915,2.28449 -3.54031,0.97553 -1.07958,-1.23833 -1.38456,-3.62564 -0.72882,-5.44076 z m 6.71396,-15.32249 c 0.0157,-0.0436 0.0356,-0.0768 0.0524,-0.11971 0.0232,-0.059 0.0482,-0.10989 0.0734,-0.16759 0.80902,-1.84633 2.39915,-2.28449 3.5403,-0.97553 1.14114,1.30895 1.41197,3.88172 0.60294,5.72805 -0.80902,1.84634 -2.39915,2.28449 -3.5403,0.97554 -1.0796,-1.23835 -1.38457,-3.62566 -0.72883,-5.44076 z m -14.02859,64.49164 c 0.0157,-0.0436 0.0356,-0.0768 0.0524,-0.11972 0.0232,-0.059 0.0482,-0.10989 0.0734,-0.16758 0.80904,-1.84634 2.39916,-2.2845 3.54031,-0.97555 1.14114,1.30897 1.41196,3.88173 0.60294,5.72806 -0.80902,1.84634 -2.39915,2.2845 -3.54029,0.97554 -1.07959,-1.23835 -1.38457,-3.62565 -0.72884,-5.44075 z m 6.71397,-15.32251 c 0.0157,-0.0436 0.0356,-0.0768 0.0524,-0.11971 0.0232,-0.059 0.0482,-0.10988 0.0734,-0.16758 0.80902,-1.84632 2.39915,-2.2845 3.54031,-0.97553 1.14112,1.30895 1.41196,3.88171 0.60293,5.72805 -0.80901,1.84634 -2.39915,2.2845 -3.54029,0.97554 -1.07959,-1.23834 -1.38457,-3.62565 -0.72883,-5.44077 z m 6.71396,-15.32249 c 0.0157,-0.0436 0.0356,-0.0768 0.0524,-0.11971 0.0232,-0.059 0.0482,-0.10989 0.0734,-0.16758 0.80902,-1.84633 2.39915,-2.2845 3.54031,-0.97554 1.14113,1.30896 1.41196,3.88172 0.60294,5.72805 -0.80901,1.84634 -2.39916,2.2845 -3.54031,0.97555 -1.07959,-1.23835 -1.38457,-3.62566 -0.72882,-5.44077 z m 6.71396,-15.32249 c 0.0157,-0.0436 0.0356,-0.0768 0.0525,-0.11971 0.0232,-0.059 0.0482,-0.10989 0.0734,-0.1676 0.80903,-1.84632 2.39915,-2.28449 3.54031,-0.97552 1.14114,1.30895 1.41196,3.88171 0.60294,5.72805 -0.80902,1.84635 -2.39915,2.28449 -3.5403,0.97554 -1.0796,-1.23834 -1.38457,-3.62565 -0.72883,-5.44076 z m -7.31464,49.16912 c 0.0158,-0.0435 0.0356,-0.0768 0.0525,-0.1197 0.0232,-0.059 0.0482,-0.10989 0.0734,-0.16759 0.80902,-1.84632 2.39915,-2.2845 3.5403,-0.97553 1.14113,1.30896 1.41197,3.88172 0.60294,5.72805 -0.80901,1.84635 -2.39916,2.2845 -3.5403,0.97555 -1.0796,-1.23835 -1.38457,-3.62566 -0.72884,-5.44078 z m 6.71397,-15.32248 c 0.0157,-0.0436 0.0356,-0.0768 0.0525,-0.11971 0.0232,-0.059 0.0482,-0.10989 0.0734,-0.16758 0.80902,-1.84633 2.39915,-2.2845 3.5403,-0.97554 1.14113,1.30895 1.41197,3.88171 0.60295,5.72805 -0.80903,1.84634 -2.39916,2.2845 -3.54031,0.97554 -1.07959,-1.23834 -1.38457,-3.62565 -0.72883,-5.44076 z"
         id="path3516" />
      <ellipse
         ry="25.5"
         rx="24.771429"
         cy="593.78571"
         cx="236.05714"
         inkscape:export-ydpi="84.3722"
         inkscape:export-xdpi="84.3722"
         inkscape:export-filename="/home/mouse/Nethome/Images/Vector/BreakInBunnyRound.png"
         style="fill:#a12f26;fill-opacity:1;stroke:#000000;stroke-width:1.18962169;stroke-linecap:round;stroke-linejoin:round;stroke-miterlimit:4;stroke-dasharray:none;stroke-dashoffset:0;stroke-opacity:1"
         id="path2714"
         transform="matrix(0.452233,0,0,1,727.5365,-0.9237)" />
      <ellipse
         ry="25.5"
         rx="24.771429"
         cy="593.78571"
         cx="236.05714"
         style="fill:#ab3930;fill-opacity:1;stroke:#000000;stroke-width:1.97722995;stroke-linecap:round;stroke-linejoin:round;stroke-miterlimit:4;stroke-dasharray:none;stroke-dashoffset:0;stroke-opacity:1"
         id="path2750"
         transform="matrix(-0.199785,0,0,-0.943956,882.8466,1205.112)"
         inkscape:export-filename="/home/mouse/Nethome/Images/Vector/BreakInBunnyRound.png"
         inkscape:export-xdpi="84.3722"
         inkscape:export-ydpi="84.3722" />
      <ellipse
         ry="25.5"
         rx="24.771429"
         cy="593.78571"
         cx="236.05714"
         inkscape:export-ydpi="84.3722"
         inkscape:export-xdpi="84.3722"
         inkscape:export-filename="/home/mouse/Nethome/Images/Vector/BreakInBunnyRound.png"
         transform="matrix(-0.126335,0.09654471,-0.101563,-0.596913,936.9706,968.1577)"
         id="path2752"
         style="fill:#ab3930;fill-opacity:1;stroke:#000000;stroke-width:2.3531177;stroke-linecap:round;stroke-linejoin:round;stroke-miterlimit:4;stroke-dasharray:none;stroke-dashoffset:0;stroke-opacity:1" />
      <ellipse
         ry="25.5"
         rx="24.771429"
         cy="593.78571"
         cx="236.05714"
         style="fill:#ab3930;fill-opacity:1;stroke:#000000;stroke-width:2.3531177;stroke-linecap:round;stroke-linejoin:round;stroke-miterlimit:4;stroke-dasharray:none;stroke-dashoffset:0;stroke-opacity:1"
         id="path2754"
         transform="matrix(0.126335,0.09654471,0.101563,-0.596913,734.0644,968.1577)"
         inkscape:export-filename="/home/mouse/Nethome/Images/Vector/BreakInBunnyRound.png"
         inkscape:export-xdpi="84.3722"
         inkscape:export-ydpi="84.3722" />
      <ellipse
         ry="25.5"
         rx="24.771429"
         cy="593.78571"
         cx="236.05714"
         inkscape:export-ydpi="84.3722"
         inkscape:export-xdpi="84.3722"
         inkscape:export-filename="/home/mouse/Nethome/Images/Vector/BreakInBunnyRound.png"
         transform="matrix(-0.268631,-0.327273,0.729639,-0.598899,279.0498,978.6667)"
         id="path2763"
         style="fill:#ab3930;fill-opacity:1;stroke:#000000;stroke-width:1.97722995;stroke-linecap:round;stroke-linejoin:round;stroke-miterlimit:4;stroke-dasharray:none;stroke-dashoffset:0;stroke-opacity:1" />
      <ellipse
         ry="25.5"
         rx="24.771429"
         cy="593.78571"
         cx="236.05714"
         style="fill:#ab3930;fill-opacity:1;stroke:#000000;stroke-width:2.3531177;stroke-linecap:round;stroke-linejoin:round;stroke-miterlimit:4;stroke-dasharray:none;stroke-dashoffset:0;stroke-opacity:1"
         id="path2765"
         transform="matrix(-0.244494,-0.145699,0.324828,-0.545088,534.981,916.9927)"
         inkscape:export-filename="/home/mouse/Nethome/Images/Vector/BreakInBunnyRound.png"
         inkscape:export-xdpi="84.3722"
         inkscape:export-ydpi="84.3722" />
      <ellipse
         ry="25.5"
         rx="24.771429"
         cy="593.78571"
         cx="236.05714"
         inkscape:export-ydpi="84.3722"
         inkscape:export-xdpi="84.3722"
         inkscape:export-filename="/home/mouse/Nethome/Images/Vector/BreakInBunnyRound.png"
         transform="matrix(0.09524415,0.268205,0.59795,-0.212343,262.1536,584.6062)"
         id="path2767"
         style="fill:#ab3930;fill-opacity:1;stroke:#000000;stroke-width:2.3531177;stroke-linecap:round;stroke-linejoin:round;stroke-miterlimit:4;stroke-dasharray:none;stroke-dashoffset:0;stroke-opacity:1" />
      <path
         inkscape:connector-curvature="0"
         inkscape:export-ydpi="84.3722"
         inkscape:export-xdpi="84.3722"
         inkscape:export-filename="/home/mouse/Nethome/Images/Vector/BreakInBunnyRound.png"
         sodipodi:nodetypes="cscscc"
         style="fill:#ab3930;fill-opacity:1;fill-rule:evenodd;stroke:#000000;stroke-width:0.80000001;stroke-linecap:round;stroke-linejoin:round;stroke-miterlimit:4;stroke-dasharray:none;stroke-opacity:1"
         d="m 622.3199,502.4919 c -25.79099,18.41336 -39.98328,45.57339 -21.95948,73.43582 20.44511,31.60547 57.38335,20.73097 85.48984,-3.33831 -23.83261,13.55167 -50.56412,14.78025 -66.63721,-10.06664 -15.90022,-24.57966 -5.7968,-50.16076 14.60546,-68.05988 -3.5193,2.04059 -8.24569,5.7066 -11.49861,8.02901 z"
         id="path2775" />
      <path
         inkscape:connector-curvature="0"
         inkscape:export-ydpi="84.3722"
         inkscape:export-xdpi="84.3722"
         inkscape:export-filename="/home/mouse/Nethome/Images/Vector/BreakInBunnyRound.png"
         id="path2777"
         d="m 808.04485,640.50583 c 0.47248,29.45831 6.47581,55.12255 25.95223,55.05696 21.26444,-0.0716 25.88486,-33.34966 23.59929,-67.53007 -1.09552,25.42399 -8.14727,46.51691 -23.9204,46.02515 -15.60349,-0.48647 -23.49984,-21.16412 -25.348,-46.1972 -0.14431,3.77477 -0.34271,8.9297 -0.28312,12.64516 z"
         style="fill:#a12f26;fill-opacity:1;fill-rule:evenodd;stroke:#000000;stroke-width:0.80000001;stroke-linecap:round;stroke-linejoin:round;stroke-miterlimit:4;stroke-dasharray:none;stroke-opacity:1"
         sodipodi:nodetypes="cscscc" />
      <path
         inkscape:connector-curvature="0"
         inkscape:export-ydpi="84.3722"
         inkscape:export-xdpi="84.3722"
         inkscape:export-filename="/home/mouse/Nethome/Images/Vector/BreakInBunnyRound.png"
         sodipodi:nodetypes="ccccccccccc"
         id="path2809"
         d="m 744.93427,481.5706 c 4.94845,2.90388 13.0022,1.74068 15.26701,-6.56365 10.19168,-0.75494 13.96637,-4.15216 10.56915,-10.19167 6.0395,-1.13242 7.54938,-9.05927 2.64228,-13.5889 6.18618,2.11597 9.96088,1.50987 9.58341,-1.88735 -0.37747,-3.39722 10.69856,4.03569 10.69856,4.03569 1.43321,23.54911 -7.8643,38.57952 -7.8643,38.57952 -6.747,4.84024 -27.85737,4.20223 -29.4895,3.35069 0,0 -3.74602,-0.81109 -6.33642,-4.11586 -8.98863,-1.80202 -9.46631,-6.73949 -9.75016,-7.94585 0,0 6.00003,2.1409 4.67997,-1.67262 z"
         style="fill:#000000;fill-opacity:0.1254902;fill-rule:evenodd;stroke:none;stroke-width:1px;stroke-linecap:butt;stroke-linejoin:miter;stroke-opacity:1" />
      <path
         inkscape:connector-curvature="0"
         inkscape:export-ydpi="84.3722"
         inkscape:export-xdpi="84.3722"
         inkscape:export-filename="/home/mouse/Nethome/Images/Vector/BreakInBunnyRound.png"
         id="path2813"
         d="m 775.69985,336.54145 c -17.69819,0.1863 -35.8498,2.71419 -51.34375,6.34375 0.0529,0.0349 0.10437,0.0577 0.15625,0.0937 43.3698,50.19851 99.60096,37.20428 125.375,30.25 -1.52784,-9.02829 -6.20133,-17.82407 -12.90625,-22.03125 -14.61696,-10.96272 -37.53302,-14.90624 -61.28125,-14.65625 z"
         style="fill:#b4d0f2;fill-opacity:1;fill-rule:evenodd;stroke:none;stroke-width:1px;stroke-linecap:butt;stroke-linejoin:miter;stroke-opacity:1" />
      <path
         inkscape:connector-curvature="0"
         inkscape:export-ydpi="84.3722"
         inkscape:export-xdpi="84.3722"
         inkscape:export-filename="/home/mouse/Nethome/Images/Vector/BreakInBunnyRound.png"
         sodipodi:nodetypes="cccsc"
         id="path3530"
         d="m 811.37109,684.69721 c -24.5133,-15.63167 -17.05274,-115.10596 9.23689,-130.38237 7.41314,-0.16249 11.72376,0.71053 11.72376,0.71053 -18.60634,7.74956 -39.07918,101.56735 -11.30221,136.19455 2.51503,3.13527 -6.33326,-3.65419 -9.65844,-6.52271 z"
         style="fill:url(#radialGradient2433);fill-opacity:1;fill-rule:evenodd;stroke:#000000;stroke-width:1px;stroke-linecap:butt;stroke-linejoin:miter;stroke-opacity:1" />
      <rect
         transform="rotate(10.991766)"
         style="fill:#aa663a;fill-opacity:1;stroke:#000000;stroke-width:10.00000381;stroke-linecap:round;stroke-linejoin:round;stroke-miterlimit:4;stroke-dasharray:none;stroke-dashoffset:0;stroke-opacity:1"
         id="rect1563"
         width="83.057175"
         height="21.857153"
         x="583.56763"
         y="366.54257"
         rx="7.3659153"
         ry="10.928576" />
      <rect
         transform="rotate(10.991766)"
         ry="10.928576"
         rx="7.3659153"
         y="366.54257"
         x="583.56763"
         height="21.857153"
         width="83.057175"
         id="rect2354"
         style="fill:#aa663a;fill-opacity:1;stroke:#000000;stroke-width:5.00000191;stroke-linecap:round;stroke-linejoin:round;stroke-miterlimit:4;stroke-dasharray:none;stroke-dashoffset:0;stroke-opacity:1" />
      <path
         inkscape:connector-curvature="0"
         id="path2649"
         d="m 476.77041,476.19979 25.03342,6.72085"
         style="fill:none;fill-opacity:0.75;fill-rule:evenodd;stroke:#000000;stroke-width:5.39691496;stroke-linecap:butt;stroke-linejoin:miter;stroke-miterlimit:4;stroke-dasharray:none;stroke-opacity:1" />
      <path
         inkscape:connector-curvature="0"
         id="rect2865"
         d="m 518.45173,484.53791 c -0.34279,-0.0622 -0.67468,-0.10797 -0.98761,-0.16 -2.06873,-0.34398 -3.48168,-0.45952 -3.99128,-0.26588 -0.0183,0.008 -0.0576,0.0406 -0.0733,0.0494 -0.0214,0.014 -0.0579,0.0334 -0.0733,0.0494 -0.004,0.006 -0.0329,0.0189 -0.0366,0.0247 -0.002,0.003 -0.004,0.0276 -0.006,0.0307 -10e-4,0.003 -0.005,0.0275 -0.006,0.0307 -1.14923,3.47124 -4.76063,5.04086 -9.40708,4.50783 0.26513,1.53807 0.48992,3.09717 0.75506,4.63525 0.003,4.4e-4 0.0269,0.006 0.0307,0.006 0.098,0.051 0.19497,0.10329 0.28889,0.15161 0.0239,0.0118 0.0606,0.0379 0.0861,0.0485 0.0307,0.006 0.0614,0.0119 0.092,0.0179 13.94094,2.73909 27.88423,5.48016 41.82517,8.21925 l 26.16724,5.0825 c 0.79178,0.15378 1.5923,0.127 2.37137,-0.0806 1.97799,-3.00298 3.97803,-6.02706 5.95601,-9.03004 -0.49577,0.0253 -1.08279,0.0186 -1.74681,-0.0209 -0.96822,4.15984 -3.1852,7.14884 -5.10437,6.77608 -1.85816,-0.36092 -2.815,-3.75021 -2.27414,-7.79537 -15.36031,-2.76976 -42.54665,-10.22278 -53.86614,-12.27702 z"
         style="fill:#242728;fill-opacity:0.17647059;stroke:none;stroke-width:5;stroke-linecap:round;stroke-linejoin:round;stroke-miterlimit:4;stroke-dasharray:none;stroke-dashoffset:0;stroke-opacity:1" />
      <path
         inkscape:connector-curvature="0"
         inkscape:export-ydpi="84.3722"
         inkscape:export-xdpi="84.3722"
         inkscape:export-filename="/home/mouse/Nethome/Data/Images/Vector/BreakInBunny2.png"
         sodipodi:nodetypes="cscsc"
         id="path2700"
         d="m 529.7508,494.063 c 0,0 -3.72763,8.30545 -3.98122,10.00186 -0.97304,6.50907 20.98723,13.15782 25.17226,9.83999 4.1307,-3.27477 2.75462,-2.67408 5.36818,-12.64468 2.22947,-8.50532 -20.04422,-15.25081 -26.55922,-7.19717 z"
         style="fill:#b4d0f2;fill-opacity:1;fill-rule:evenodd;stroke:#000000;stroke-width:1.00000036px;stroke-linecap:butt;stroke-linejoin:miter;stroke-opacity:1" />
      <path
         inkscape:connector-curvature="0"
         sodipodi:nodetypes="csccsscc"
         id="path2839"
         d="m 546.58983,493.56861 c -1.23317,-0.15481 -2.22228,-0.0125 -2.74279,0.51779 -0.0691,0.074 -0.12467,0.16262 -0.17633,0.25226 -4.36675,13.61658 -8.34015,14.38701 -14.73305,13.98752 6.04598,4.38586 18.58687,7.65828 21.69294,5.19583 4.13068,-3.27477 3.11682,-2.19159 5.20464,-12.28539 0.58548,-2.83054 -1.91723,-5.20071 -1.92306,-5.20782 -2.8737,-1.35675 -5.00547,-2.16933 -7.32235,-2.46019 z"
         style="fill:#a0bcde;fill-opacity:1;fill-rule:evenodd;stroke:none;stroke-width:1px;stroke-linecap:butt;stroke-linejoin:miter;stroke-opacity:1" />
      <ellipse
         ry="8.3154287"
         rx="3.7302856"
         cy="490.59085"
         cx="611.76685"
         transform="rotate(10.991766,563.59865,308.50522)"
         id="path2844"
         style="fill:#2a2d2b;fill-opacity:0.33529412;stroke:none;stroke-width:3.75;stroke-linecap:round;stroke-linejoin:round;stroke-miterlimit:4;stroke-dasharray:none;stroke-dashoffset:0;stroke-opacity:0.50196078" />
      <path
         inkscape:connector-curvature="0"
         id="path2518"
         d="m 421.30259,418.93617 c -0.22375,-0.0413 -0.45732,-0.061 -0.68084,-0.10041 l -1.1023,5.6752 -18.65145,-3.62269 0.61371,-3.15971 c -0.34141,0.0209 -0.68964,0.0294 -1.02932,0.0547 l -0.56604,2.91429 -8.58948,-1.66835 c -0.82149,0.16599 -1.65498,0.34782 -2.46075,0.54074 l 10.85956,2.10926 -3.62269,18.65145 -18.65145,-3.62269 2.8064,-14.44874 c -0.36364,0.14222 -0.74208,0.27464 -1.10083,0.42287 l -2.68722,13.8352 -14.234,-2.76469 c -0.28564,0.28732 -0.55888,0.56268 -0.83488,0.85653 l 14.87821,2.88981 -3.62269,18.65145 -20.64544,-4.00999 c -0.0516,0.23896 -0.0962,0.49544 -0.143,0.73624 -0.017,0.0876 -0.0313,0.15784 -0.0477,0.24542 l 20.64543,4.00998 -3.62269,18.65145 -15.1543,-2.94344 c 0.13893,0.37195 0.27278,0.73118 0.42286,1.10082 l 14.54077,2.82427 -2.7766,14.29535 c 0.27717,0.27175 0.57852,0.53621 0.86248,0.80421 l 2.89577,-14.90889 18.65145,3.62269 -3.62269,18.65145 -11.87189,-2.30589 c 0.65329,0.48157 1.3405,0.94722 2.01805,1.41065 l 9.66317,1.87689 -0.65542,3.37444 c 0.3055,0.15062 0.61925,0.3196 0.92803,0.46676 l 0.70904,-3.65053 18.65145,3.62269 -1.19168,6.13535 c 0.32318,0.0686 0.65058,0.15623 0.9757,0.22134 l 1.19763,-6.16602 18.65145,3.62269 -0.80438,4.14136 c 0.34719,-0.012 0.68974,-0.0689 1.03528,-0.0854 l 0.75075,-3.86527 11.62648,2.25822 c 0.79828,-0.17534 1.586,-0.35759 2.36871,-0.55861 l -13.80452,-2.68126 3.62269,-18.65145 18.65145,3.62269 -3.12815,16.10528 c 0.36781,-0.1283 0.73158,-0.25793 1.09487,-0.39219 l 3.01493,-15.52242 16.50408,3.20561 c 0.27595,-0.28503 0.53763,-0.57122 0.8042,-0.86249 l -17.11761,-3.32477 3.62269,-18.65145 21.71912,4.21853 0.19067,-0.98166 -21.71912,-4.21852 3.62269,-18.65145 16.84152,3.27115 c -0.14593,-0.3758 -0.29622,-0.73343 -0.45354,-1.10678 l -16.19731,-3.14602 2.91961,-15.0316 c -0.29102,-0.2646 -0.56484,-0.54354 -0.86249,-0.8042 l -3.03877,15.64513 -18.65145,-3.62269 3.62269,-18.65145 12.7922,2.48464 c -0.67218,-0.47838 -1.35211,-0.95716 -2.04874,-1.41661 l -10.55279,-2.04968 0.66734,-3.4358 c -0.31223,-0.14374 -0.61857,-0.2959 -0.93399,-0.43608 l -0.715,3.68121 -18.65145,-3.62269 1.10826,-5.70587 c -0.10176,-0.0192 -0.20506,-0.0408 -0.30677,-0.0596 z m -20.62526,2.93375 18.65145,3.62269 -3.62269,18.65145 -18.65145,-3.62269 z m 19.6331,3.81336 18.65145,3.62269 -3.62269,18.65145 -18.65145,-3.62269 z m -43.07956,12.00638 18.65145,3.62269 -3.62269,18.65145 -18.65145,-3.62269 z m 19.6331,3.81336 18.65145,3.62269 -3.62269,18.65145 -18.65145,-3.62269 z m 19.6331,3.81336 18.65145,3.62269 -3.62269,18.65145 -18.65145,-3.62269 z m 19.6331,3.81336 18.65145,3.62269 -3.62269,18.65145 -18.65145,-3.62269 z m -62.71266,8.19302 18.65145,3.62269 -3.62269,18.65145 -18.65145,-3.62269 z m 19.6331,3.81336 18.65145,3.62269 -3.62269,18.65145 -18.65145,-3.62269 z m 19.6331,3.81336 18.65145,3.62269 -3.62269,18.65145 -18.65145,-3.62269 z m 19.6331,3.81336 18.65145,3.62269 -3.62269,18.65145 -18.65145,-3.62269 z m -43.07956,12.00638 18.65145,3.62269 -3.62269,18.65145 -18.65145,-3.62269 z m 19.6331,3.81336 18.65145,3.62269 -3.62269,18.65145 -18.65145,-3.62269 z"
         style="fill:#000000;fill-opacity:1;fill-rule:evenodd;stroke:none;stroke-width:1px;stroke-linecap:butt;stroke-linejoin:miter;stroke-opacity:1" />
      <ellipse
         ry="46.539925"
         rx="62.538021"
         cy="495.94107"
         cx="452.30988"
         transform="rotate(10.991766,594.66789,277.23287)"
         id="path2930"
         style="color:#000000;display:inline;overflow:visible;visibility:visible;fill:none;fill-opacity:1;fill-rule:nonzero;stroke:#000000;stroke-width:6.25;stroke-linecap:butt;stroke-linejoin:miter;stroke-miterlimit:4;stroke-dasharray:none;stroke-dashoffset:0;stroke-opacity:1;marker:none;marker-start:none;marker-mid:none;marker-end:none" />
      <g
         transform="rotate(10.991766,553.96408,307.57825)"
         id="g2462">
        <path
           inkscape:connector-curvature="0"
           style="fill:none;fill-opacity:0.75;fill-rule:evenodd;stroke:#000000;stroke-width:1;stroke-linecap:butt;stroke-linejoin:miter;stroke-miterlimit:4;stroke-dasharray:1, 1;stroke-dashoffset:0;stroke-opacity:1"
           d="m 435.0027,445.38866 v 87.89953"
           id="path2440" />
        <path
           inkscape:connector-curvature="0"
           id="path2442"
           d="m 415.0027,451.47214 v 75.73258"
           style="fill:none;fill-opacity:0.75;fill-rule:evenodd;stroke:#000000;stroke-width:1;stroke-linecap:butt;stroke-linejoin:miter;stroke-miterlimit:4;stroke-dasharray:1, 1;stroke-dashoffset:0;stroke-opacity:1" />
        <path
           inkscape:connector-curvature="0"
           style="fill:none;fill-opacity:0.75;fill-rule:evenodd;stroke:#000000;stroke-width:1;stroke-linecap:butt;stroke-linejoin:miter;stroke-miterlimit:4;stroke-dasharray:1, 1;stroke-dashoffset:0;stroke-opacity:1"
           d="m 495.0027,462.22513 v 54.7005"
           id="path2444" />
        <path
           inkscape:connector-curvature="0"
           id="path2446"
           d="m 455.0027,445.38866 v 87.89953"
           style="fill:none;fill-opacity:0.75;fill-rule:evenodd;stroke:#000000;stroke-width:1;stroke-linecap:butt;stroke-linejoin:miter;stroke-miterlimit:4;stroke-dasharray:1, 1;stroke-dashoffset:0;stroke-opacity:1" />
        <path
           inkscape:connector-curvature="0"
           style="fill:none;fill-opacity:0.75;fill-rule:evenodd;stroke:#000000;stroke-width:1;stroke-linecap:butt;stroke-linejoin:miter;stroke-miterlimit:4;stroke-dasharray:1, 1;stroke-dashoffset:0;stroke-opacity:1"
           d="m 475.0027,451.47214 v 75.73258"
           id="path2450" />
        <path
           inkscape:connector-curvature="0"
           id="path2452"
           d="m 395.0027,462.22513 v 54.7005"
           style="fill:none;fill-opacity:0.75;fill-rule:evenodd;stroke:#000000;stroke-width:1;stroke-linecap:butt;stroke-linejoin:miter;stroke-miterlimit:4;stroke-dasharray:1, 1;stroke-dashoffset:0;stroke-opacity:1" />
        <path
           inkscape:connector-curvature="0"
           id="path2454"
           d="M 389.20485,479.33843 H 503.81238"
           style="fill:none;fill-opacity:0.75;fill-rule:evenodd;stroke:#000000;stroke-width:1;stroke-linecap:butt;stroke-linejoin:miter;stroke-miterlimit:4;stroke-dasharray:1, 1;stroke-dashoffset:0;stroke-opacity:1" />
        <path
           inkscape:connector-curvature="0"
           style="fill:none;fill-opacity:0.75;fill-rule:evenodd;stroke:#000000;stroke-width:1;stroke-linecap:butt;stroke-linejoin:miter;stroke-miterlimit:4;stroke-dasharray:1, 1;stroke-dashoffset:0;stroke-opacity:1"
           d="M 389.20485,499.33843 H 503.81238"
           id="path2456" />
        <path
           inkscape:connector-curvature="0"
           id="path2458"
           d="m 403.25579,519.33843 h 86.50565"
           style="fill:none;fill-opacity:0.75;fill-rule:evenodd;stroke:#000000;stroke-width:1;stroke-linecap:butt;stroke-linejoin:miter;stroke-miterlimit:4;stroke-dasharray:1, 1;stroke-dashoffset:0;stroke-opacity:1" />
        <path
           inkscape:connector-curvature="0"
           style="fill:none;fill-opacity:0.75;fill-rule:evenodd;stroke:#000000;stroke-width:1;stroke-linecap:butt;stroke-linejoin:miter;stroke-miterlimit:4;stroke-dasharray:1, 1;stroke-dashoffset:0;stroke-opacity:1"
           d="m 403.25579,459.33843 h 86.50565"
           id="path2460" />
      </g>
      <path
         inkscape:connector-curvature="0"
         sodipodi:nodetypes="czz"
         id="path2560"
         d="M 727.67349,486.15947 C 702.4379,448.30575 559.18822,508.2992 602.06278,574.02751 644.9315,639.74684 752.90049,524.00032 727.67349,486.15947 Z"
         style="fill:none;fill-opacity:1;fill-rule:evenodd;stroke:#000000;stroke-width:4.375;stroke-linecap:butt;stroke-linejoin:miter;stroke-miterlimit:4;stroke-dasharray:none;stroke-opacity:1"
         inkscape:export-filename="/home/mouse/Nethome/Images/Vector/BreakInBunnyRound.png"
         inkscape:export-xdpi="84.3722"
         inkscape:export-ydpi="84.3722" />
      <path
         inkscape:connector-curvature="0"
         style="fill:none;fill-opacity:1;fill-rule:evenodd;stroke:#000000;stroke-width:4.5;stroke-linecap:butt;stroke-linejoin:miter;stroke-miterlimit:4;stroke-dasharray:none;stroke-opacity:1"
         d="m 834.80795,555.42576 c -23.9528,-2.54006 -44.41709,134.98194 -3.12698,140.0801 41.28447,5.09744 27.07163,-137.54091 3.12698,-140.0801 z"
         id="path2563"
         sodipodi:nodetypes="czz"
         inkscape:export-filename="/home/mouse/Nethome/Images/Vector/BreakInBunnyRound.png"
         inkscape:export-xdpi="84.3722"
         inkscape:export-ydpi="84.3722" />
    </g>
  </g>
</svg>
